<!DOCTYPE svg PUBLIC "-//W3C//DTD SVG 1.1//EN" "http://www.w3.org/Graphics/SVG/1.1/DTD/svg11.dtd">
<!-- Uploaded to: SVG Repo, www.svgrepo.com, Transformed by: SVG Repo Mixer Tools -->
<svg fill="#ffff" height="64px" width="64px" version="1.1" id="Capa_1" xmlns="http://www.w3.org/2000/svg" xmlns:xlink="http://www.w3.org/1999/xlink" viewBox="0 0 470.004 470.004" xml:space="preserve" stroke="#ffff">
<g id="SVGRepo_bgCarrier" stroke-width="0"/>
<g id="SVGRepo_tracerCarrier" stroke-linecap="round" stroke-linejoin="round"/>
<g id="SVGRepo_iconCarrier"> <g> <path d="M4.983,14.568C15.84,18.44,26.779,22.023,37.79,25.331l26.251,115.744c0.647,2.853,2.894,5.069,5.755,5.677 c0.52,0.111,1.042,0.165,1.56,0.165c2.334,0,4.573-1.093,6.007-3.01l71.126-95.151c9.928,1.251,19.894,2.284,29.895,3.101 l49.809,107.903c1.226,2.656,3.884,4.356,6.81,4.356s5.583-1.701,6.81-4.356l49.809-107.903c10-0.818,19.967-1.85,29.894-3.101 l71.126,95.151c1.434,1.918,3.672,3.01,6.007,3.01c0.518,0,1.041-0.054,1.56-0.165c2.861-0.608,5.108-2.824,5.755-5.677 l26.251-115.744c11.011-3.308,21.95-6.891,32.807-10.763c3.901-1.391,5.936-5.682,4.545-9.583 c-1.392-3.902-5.681-5.939-9.584-4.545c-72.06,25.698-147.754,38.729-224.98,38.729c-77.226,0-152.92-13.03-224.981-38.729 C6.12-0.954,1.83,1.083,0.438,4.985C-0.953,8.886,1.081,13.176,4.983,14.568z M75.076,121.912L54.243,30.055 c25.417,6.943,51.204,12.396,77.277,16.348L75.076,121.912z M394.928,121.912l-56.444-75.509 c26.073-3.952,51.86-9.404,77.277-16.348L394.928,121.912z M274.554,53.038l-39.552,85.683L195.45,53.038 c13.134,0.747,26.32,1.13,39.552,1.13C248.234,54.168,261.42,53.785,274.554,53.038z"/> <path d="M459.983,153.383c-72.06,25.699-147.754,38.729-224.98,38.729c-77.226,0-152.92-13.03-224.981-38.729 c-3.901-1.392-8.191,0.644-9.583,4.545c-1.391,3.901,0.644,8.192,4.545,9.583c10.857,3.872,21.796,7.454,32.807,10.763 l26.251,115.744c0.647,2.853,2.894,5.069,5.755,5.677c0.52,0.111,1.042,0.165,1.56,0.165c2.334,0,4.573-1.093,6.007-3.01 l71.126-95.151c9.928,1.251,19.894,2.284,29.895,3.101l49.809,107.903c1.226,2.656,3.884,4.356,6.81,4.356s5.583-1.701,6.81-4.356 L291.621,204.8c10-0.818,19.966-1.85,29.894-3.101l71.127,95.151c1.434,1.918,3.672,3.01,6.007,3.01 c0.518,0,1.041-0.054,1.56-0.165c2.861-0.608,5.108-2.824,5.755-5.677l26.251-115.744c11.011-3.308,21.95-6.891,32.807-10.763 c3.901-1.392,5.936-5.682,4.545-9.583C468.175,154.026,463.883,151.99,459.983,153.383z M75.076,274.856l-20.833-91.857 c25.417,6.943,51.204,12.396,77.277,16.348L75.076,274.856z M235.002,291.665l-39.552-85.683c13.134,0.747,26.32,1.13,39.552,1.13 c13.232,0,26.418-0.383,39.552-1.13L235.002,291.665z M394.928,274.856l-56.444-75.509c26.073-3.952,51.86-9.404,77.278-16.348 L394.928,274.856z"/> <path d="M459.983,306.327c-72.061,25.698-147.755,38.729-224.981,38.729s-152.92-13.03-224.981-38.729 c-3.901-1.394-8.191,0.643-9.583,4.545c-1.391,3.901,0.644,8.192,4.545,9.583c10.857,3.872,21.796,7.455,32.807,10.763 l26.251,115.744c0.647,2.853,2.894,5.069,5.755,5.677c0.52,0.111,1.042,0.165,1.56,0.165c2.334,0,4.573-1.093,6.007-3.01 l71.126-95.151c9.928,1.251,19.894,2.284,29.895,3.101l49.809,107.903c1.226,2.656,3.884,4.356,6.81,4.356s5.583-1.701,6.81-4.356 l49.809-107.903c10-0.818,19.967-1.85,29.894-3.101l71.126,95.151c1.434,1.918,3.672,3.01,6.007,3.01 c0.518,0,1.041-0.054,1.56-0.165c2.861-0.608,5.108-2.824,5.755-5.677l26.251-115.743c11.011-3.308,21.95-6.891,32.807-10.762 c3.902-1.392,5.937-5.682,4.545-9.583C468.175,306.971,463.885,304.936,459.983,306.327z M75.076,427.8l-20.833-91.857 c25.417,6.943,51.204,12.396,77.277,16.348L75.076,427.8z M235.002,444.609l-39.552-85.683c13.134,0.747,26.32,1.13,39.552,1.13 c13.232,0,26.418-0.383,39.552-1.13L235.002,444.609z M394.928,427.8l-56.444-75.509c26.073-3.952,51.86-9.404,77.277-16.348 L394.928,427.8z"/> </g> </g>
</svg>